<svg width="32" height="32" xmlns="http://www.w3.org/2000/svg">

 <g>
  <title>background</title>
  <rect fill="none" id="canvas_background" height="402" width="582" y="-1" x="-1"/>
 </g>
 <g>
  <title>Layer 1</title>
  <path id="svg_3" fill="#9a9da0" d="m29.08,20.045c-0.644,-0.369 -0.969,-1.646 -0.723,-2.838c0,0 0,0 0,-1.148c0,-1.204 -0.01,-1.252 -0.01,-1.252c-0.265,-1.219 0.057,-2.524 0.713,-2.9c0.656,-0.375 0.687,-1.568 0.068,-2.651l-0.67,-1.171c-0.618,-1.085 -1.669,-1.662 -2.335,-1.284c-0.664,0.376 -2.009,0.052 -2.987,-0.723l-2.11,-1.213c-1.153,-0.476 -2.098,-1.483 -2.098,-2.24s-1.022,-1.375 -2.269,-1.375l-1.313,0c-1.248,0 -2.269,0.609 -2.269,1.354c0,0.744 -0.949,1.732 -2.107,2.194l-2.208,1.21c-0.976,0.778 -2.29,1.12 -2.92,0.76c-0.632,-0.359 -1.654,0.232 -2.274,1.316l-0.669,1.171c-0.62,1.083 -0.623,2.258 -0.008,2.609c0.615,0.352 0.897,1.637 0.625,2.854c0,0 -0.023,0.104 -0.023,1.339c0,1.18 0,1.184 0,1.184c0.259,1.22 -0.022,2.5 -0.626,2.846c-0.603,0.344 -0.59,1.512 0.029,2.596l0.669,1.172c0.619,1.084 1.618,1.689 2.218,1.348c0.601,-0.344 1.89,0.015 2.864,0.796l2.323,1.313c1.157,0.467 2.105,1.431 2.105,2.144c0,0.711 1.021,1.294 2.269,1.294l1.313,0c1.248,0 2.269,-0.592 2.269,-1.316c0,-0.724 0.942,-1.707 2.095,-2.188l2.226,-1.315c0.977,-0.778 2.293,-1.119 2.928,-0.76c0.633,0.361 1.658,-0.23 2.277,-1.314l0.671,-1.172c0.621,-1.085 0.602,-2.273 -0.043,-2.64zm-13.2,3.939c-4.444,0 -8.045,-3.602 -8.045,-8.045c0,-4.443 3.602,-8.045 8.045,-8.045c4.443,0 8.045,3.603 8.045,8.045c0.001,4.444 -3.602,8.045 -8.045,8.045z"/>
  <circle id="svg_5" r="3.356" fill="#9a9da0" cy="15.859" cx="15.962"/>
 </g>
</svg>